<svg aria-hidden="true" style="position: absolute; width: 0; height: 0; overflow: hidden;" version="1.1" xmlns="http://www.w3.org/2000/svg" xmlns:xlink="http://www.w3.org/1999/xlink">
    <defs>
        <symbol id="logo" viewBox="0 0 40 36">
            <path d="M37 2.7c-3.7.2-11.2 1-15.8 3.8a1 1 0 0 0-.5.9v24.9c0 .8 1 1.3 1.6.9 4.8-2.4 11.6-3 15-3.2 1.1 0 2-1 2-2.1V4.8c0-1.2-1-2.2-2.3-2.1ZM18 6.5C13.6 3.7 6 2.9 2.4 2.7 1 2.7 0 3.6 0 4.7V28c0 1 .9 2 2 2 3.4.3 10.3 1 15 3.3.7.4 1.6-.1 1.6-1V7.5a1 1 0 0 0-.5-1Z"></path>
        </symbol>
        <symbol id="arrow-right" viewBox="0 0 9 19">
            <path fill="#fff" d="M7.89 10.1 3.1 14.88a.84.84 0 0 1-1.19 0l-.8-.8a.84.84 0 0 1 0-1.19l3.4-3.39-3.4-3.39a.84.84 0 0 1 0-1.19l.8-.8a.84.84 0 0 1 1.2 0L7.87 8.9c.34.33.34.87 0 1.2Z"></path>
        </symbol>
        <symbol id="facebook" viewBox="0 0 35 35">
            <path d="M34.5 17.9a17 17 0 1 0-19.7 16.7V22.8h-4.3v-5h4.3v-3.6c0-4.3 2.6-6.6 6.4-6.6 2 0 3.8.3 3.8.3V12H23c-2.1 0-2.8 1.3-2.8 2.6V18h4.7l-.7 4.9h-4v11.8A17 17 0 0 0 34.5 18Z"/>
        </symbol>
        <symbol id="twitter" viewBox="0 0 35 30">
            <path d="M31.4 7.8c1.3-1 2.6-2.3 3.5-3.7-1.2.5-2.6 1-4 1a7 7 0 0 0 3-3.9C32.7 2 31 2.6 29.6 3a7.2 7.2 0 0 0-12.2 6.6c-6-.4-11.4-3.3-15-7.6a7 7 0 0 0-.9 3.6 7 7 0 0 0 3.2 6c-1.1 0-2.3-.3-3.2-.9 0 3.6 2.4 6.4 5.7 7.1a8 8 0 0 1-1.8.3L3.9 18c.9 2.8 3.6 4.9 6.7 5-2.5 1.9-5.5 3-8.9 3L0 26A20 20 0 0 0 11 29 20.2 20.2 0 0 0 31.4 8.7v-1Z"></path>
        </symbol>
        <symbol id="youtube" viewBox="0 0 38 27">
            <path d="M36.8 5c-.4-1.7-1.7-3-3.2-3.4C30.6.7 19 .7 19 .7S7.3.8 4.4 1.6A4.7 4.7 0 0 0 1 4.9c-.8 2.9-.8 9-.8 9s0 6.1.8 9a4.6 4.6 0 0 0 3.3 3.3c3 .8 14.6.8 14.6.8s11.6 0 14.6-.8a4.6 4.6 0 0 0 3.2-3.2c.9-3 .9-9 .9-9s0-6.2-.9-9ZM15.2 19.4v-11l9.7 5.4-9.7 5.6Z"></path>
        </symbol>
        <symbol id="linkedIn" viewBox="0 0 31 31">
            <path d="M7 31V10.6H.7V31H7ZM3.8 7.8c2 0 3.7-1.7 3.7-3.7A3.7 3.7 0 0 0 .2 4c0 2 1.6 3.7 3.6 3.7Zm27 23.2V19.8c0-5.5-1.2-9.7-7.6-9.7-3.1 0-5.2 1.7-6 3.3H17v-2.8H11V31h6.3V20.9c0-2.7.5-5.2 3.8-5.2s3.4 3 3.4 5.4V31h6.2Z"></path>
        </symbol>
        <symbol id="warning" viewBox="0 0 13 12">
            <path fill="#eb5757" d="M13 11.04c0 .312-.107.55-.321.714a1.258 1.258 0 0 1-.789.246H1.11c-.312 0-.575-.084-.789-.252C.107 11.58 0 11.344 0 11.04c0-.24.07-.484.21-.732L5.595.66c.257-.44.56-.66.91-.66.351 0 .647.22.889.66l5.396 9.66c.14.256.21.496.21.72ZM7.312 4.908V3.156H5.688v1.752c0 .112.008.218.024.318.015.1.037.212.064.336.027.124.049.23.064.318l.304 1.944h.689l.315-1.944a7.18 7.18 0 0 1 .07-.312c.031-.128.055-.242.07-.342.016-.1.024-.206.024-.318Zm0 4.644a.8.8 0 0 0-.24-.588.787.787 0 0 0-.578-.24.774.774 0 0 0-.566.24.8.8 0 0 0-.24.588c0 .232.08.43.24.594.16.164.348.246.566.246a.777.777 0 0 0 .578-.246.82.82 0 0 0 .24-.594Z"></path>
        </symbol>
    </defs>
</svg>
